# xmcd CD database file
#
# Track frame offsets:
#	150
#	18137
#	31687
#	48750
#	70000
#	87012
#	106975
#	123802
#	140540
#	154757
#
# Disc length: 2301 seconds
#
# Revision: 4
# Processed by: cddbd v1.5PL3 Copyright (c) Steve Scherf et al.
# Submitted via: CDex 1.50beta8
#
DISCID=6a08fb0a
DTITLE=松田聖子 - SQUALL
DYEAR=1980
DGENRE=Japanese Pop
TTITLE0=〜南太平洋〜サンバの香り
TTITLE1=ブルーエンジェル
TTITLE2=SQUALL
TTITLE3=トロピカル･ヒーロー
TTITLE4=裸足の季節
TTITLE5=ロックンロール･デイドリーム
TTITLE6=クールギャング
TTITLE7=青い珊瑚礁
TTITLE8=九月の夕暮れ
TTITLE9=潮騒
EXTD=YEAR: 1980
EXTT0=
EXTT1=
EXTT2=
EXTT3=
EXTT4=
EXTT5=
EXTT6=
EXTT7=
EXTT8=
EXTT9=
PLAYORDER=
